<svg preserveAspectRatio="none" width="14" height="14" viewBox="0 0 14 14" fill="none" xmlns="http://www.w3.org/2000/svg">
<g clip-path="url(#clip0_73_727)">
<path d="M0.0323935 1.57616C0.0323935 0.723731 0.723422 0.0327044 1.57585 0.0327044H12.3441C13.1965 0.0327044 13.8876 0.723733 13.8876 1.57616V12.0558C13.8876 12.9082 13.1965 13.5992 12.3441 13.5992H1.57585C0.723422 13.5992 0.0323935 12.9082 0.0323935 12.0558V1.57616Z" fill="#FFA824"/>
<path d="M5.08667 6.9393H6.31477L5.70074 4.5579L5.08667 6.9393ZM2.62404 1.0951C1.77161 1.0951 1.08059 1.78613 1.08059 2.63856V11.0003C1.08059 11.8527 1.77161 12.5437 2.62404 12.5437H11.3134C12.1658 12.5437 12.8569 11.8527 12.8569 11.0003V2.63856C12.8569 1.78613 12.1658 1.0951 11.3134 1.0951H2.62404ZM6.98876 9.55036L6.53943 8.00272H4.87696L4.42763 9.55036H3.28936L4.89193 4.07865V3.47956H6.41963L8.24684 9.55036H6.98876ZM10.0142 9.55036H8.78611V4.93238H10.0142V9.55036ZM9.4076 4.37822C9.05605 4.37822 8.77102 4.09658 8.77102 3.74919C8.77102 3.40177 9.05599 3.12012 9.4076 3.12012C9.75921 3.12012 10.0442 3.40177 10.0442 3.74919C10.0442 4.09658 9.75918 4.37822 9.4076 4.37822Z" fill="url(#paint0_linear_73_727)"/>
</g>
<defs>
<linearGradient id="paint0_linear_73_727" x1="6.96873" y1="1.07588" x2="6.96873" y2="12.4859" gradientUnits="userSpaceOnUse">
<stop stop-color="#251200"/>
<stop offset="1"/>
</linearGradient>
<clipPath id="clip0_73_727">
<rect width="13.8552" height="13.567" fill="white" transform="translate(0.0323935 0.0324621)"/>
</clipPath>
</defs>
</svg>
