<svg preserveAspectRatio="none" width="204" height="103" viewBox="0 0 204 103" fill="none" xmlns="http://www.w3.org/2000/svg">
<path d="M12.3477 50.2586C6.17393 50.2586 6.17393 40.9979 0.000107806 40.9978V96.5622C0.000107806 99.972 2.76422 102.736 6.17393 102.736H197.562C200.972 102.736 203.736 100.004 203.736 96.5945V0.867989C197.562 0.867998 191.389 8.5853 185.215 8.5853C179.041 8.5853 179.041 3.95495 172.867 3.95493C166.693 3.95491 164.863 8.00238 160.52 11.6722C154.623 16.6538 154.346 27.1067 148.172 27.1067C141.998 27.1067 141.998 40.9979 135.824 40.9979C129.65 40.9979 129.65 33.2806 123.477 33.2806C117.303 33.2806 117.303 24.0198 111.129 24.0198C104.955 24.0198 104.955 45.2423 98.7813 45.2423C92.6075 45.2423 92.6074 36.3675 86.4336 36.3675C80.2598 36.3675 80.2598 50.2586 74.086 50.2586C67.9121 50.2586 67.9121 47.5575 61.7383 47.5575C55.5645 47.5575 55.5645 45.6282 49.3907 45.6282C43.2168 45.6282 43.2169 53.3455 37.043 53.3455C30.8692 53.3455 30.8692 61.0627 24.6954 61.0627C18.5216 61.0627 18.5216 50.2586 12.3477 50.2586Z" fill="url(#paint0_linear_73_853)"/>
<defs>
<linearGradient id="paint0_linear_73_853" x1="101.868" y1="0.867989" x2="101.868" y2="102.736" gradientUnits="userSpaceOnUse">
<stop stop-color="#751DC8"/>
<stop offset="1" stop-color="#A855F7" stop-opacity="0"/>
</linearGradient>
</defs>
</svg>
