<svg preserveAspectRatio="none" width="204" height="62" viewBox="0 0 204 62" fill="none" xmlns="http://www.w3.org/2000/svg">
<path d="M0.000107806 40.9979C6.17393 40.9979 6.17393 50.2586 12.3478 50.2586C18.5216 50.2586 18.5216 61.0627 24.6954 61.0627C30.8692 61.0627 30.8692 53.3455 37.043 53.3455C43.2169 53.3455 43.2169 45.6282 49.3907 45.6282C55.5645 45.6282 55.5645 47.5575 61.7383 47.5575C67.9122 47.5575 67.9122 50.2586 74.086 50.2586C80.2598 50.2586 80.2598 36.3675 86.4336 36.3675C92.6074 36.3675 92.6074 45.2423 98.7813 45.2423C104.955 45.2423 104.955 24.0198 111.129 24.0198C117.303 24.0198 117.303 33.2806 123.477 33.2806C129.65 33.2806 129.65 40.9979 135.824 40.9979C141.998 40.9979 141.998 27.1067 148.172 27.1067C154.346 27.1067 154.623 16.6538 160.519 11.6722C164.863 8.00238 166.693 3.95491 172.867 3.95493C179.041 3.95495 179.041 8.58529 185.215 8.58529C191.389 8.58529 197.562 0.867998 203.736 0.867989" stroke="#C084FC" stroke-width="1.54346"/>
</svg>
