<svg preserveAspectRatio="none" width="15" height="15" viewBox="0 0 15 15" fill="none" xmlns="http://www.w3.org/2000/svg">
<g clip-path="url(#clip0_73_813)">
<path d="M7.31779 0.0337521C7.31779 0.0337521 11.6238 -0.160067 13.9059 4.16742H6.95163C6.95163 4.16742 5.63823 4.12422 4.51866 5.71767C4.19577 6.38516 3.85137 7.07414 4.23884 8.4303C3.6791 7.48319 1.26768 3.28477 1.26768 3.28477C1.26768 3.28477 2.96874 0.20592 7.31779 0.0337521Z" fill="#C6352E"/>
<path d="M13.6817 11.0211C13.6817 11.0211 11.696 14.8467 6.80712 14.6587C7.41022 13.6147 10.2851 8.63656 10.2851 8.63656C10.2851 8.63656 10.9791 7.52087 10.1596 5.75455C9.74295 5.14106 9.31868 4.4982 7.95029 4.15544C9.0508 4.14451 13.892 4.15614 13.892 4.15614C13.892 4.15614 15.7075 7.16886 13.6817 11.0211Z" fill="#F4D911"/>
<path d="M0.984423 11.0502C0.984423 11.0502 -1.33564 7.41731 1.27198 3.27774C1.87455 4.32208 4.74785 9.3011 4.74785 9.3011C4.74785 9.3011 5.36685 10.46 7.30644 10.6335C8.04582 10.5796 8.81486 10.5336 9.79592 9.52006C9.25502 10.4784 6.82402 14.6654 6.82402 14.6654C6.82402 14.6654 3.3073 14.7309 0.984423 11.0502Z" fill="#81B354"/>
<path d="M6.80712 14.6941L7.78533 10.6122C7.78533 10.6122 8.8609 10.5283 9.76212 9.53913C9.20265 10.5233 6.80712 14.6941 6.80712 14.6941V14.6941Z" fill="#7BAA50"/>
<path d="M4.04162 7.40895C4.04162 5.60951 5.50021 4.15076 7.29981 4.15076C9.09925 4.15076 10.558 5.60948 10.558 7.40895C10.558 9.20848 9.09931 10.6673 7.29981 10.6673C5.50021 10.6673 4.04162 9.20851 4.04162 7.40895V7.40895Z" fill="white"/>
<path d="M4.58691 7.40893C4.58691 5.91073 5.80143 4.69617 7.2998 4.69617C8.79786 4.69617 10.0125 5.91073 10.0125 7.40893C10.0125 8.90717 8.79786 10.1218 7.2998 10.1218C5.80143 10.1219 4.58691 8.9071 4.58691 7.40893V7.40893Z" fill="url(#paint0_linear_73_813)"/>
<path d="M13.8921 4.15613L9.86415 5.33711C9.86415 5.33711 9.25675 4.44573 7.95029 4.15543C9.0823 4.15157 13.8921 4.15613 13.8921 4.15613Z" fill="#E7CE12"/>
<path d="M4.16048 8.28384C3.59441 7.30352 1.26778 3.2847 1.26778 3.2847L4.25161 6.23639C4.25161 6.23639 3.94498 6.86715 4.06124 7.76804L4.16048 8.28384V8.28384Z" fill="#BC332C"/>
</g>
<defs>
<linearGradient id="paint0_linear_73_813" x1="7.2997" y1="4.73455" x2="7.2997" y2="9.95951" gradientUnits="userSpaceOnUse">
<stop stop-color="#A2C0E6"/>
<stop offset="1" stop-color="#406CB1"/>
</linearGradient>
<clipPath id="clip0_73_813">
<rect width="14.6088" height="14.6616" fill="white" transform="translate(0.0323935 0.0324564)"/>
</clipPath>
</defs>
</svg>
