<svg preserveAspectRatio="none" width="25" height="25" viewBox="0 0 25 25" fill="none" xmlns="http://www.w3.org/2000/svg">
<path d="M21.0583 19.1025H18.9435C18.5911 17.8185 17.4455 16.9625 16.0357 16.9625C14.3614 16.9625 12.9516 18.3321 12.9516 19.9584C12.9516 21.5848 14.3614 22.9544 16.0357 22.9544C17.4455 22.9544 18.5911 22.0984 18.9435 20.8144H21.0583C21.587 20.8144 21.9395 20.3864 21.9395 19.9584C21.9395 19.4449 21.587 19.1025 21.0583 19.1025Z" fill="#DADEE6"/>
<path d="M11.103 18.9598H4.81356C4.3036 18.9598 3.96363 19.4591 3.96363 19.9584C3.96363 20.5576 4.3886 20.9571 4.81356 20.9571H11.103C11.6129 20.9571 11.9529 20.4578 11.9529 19.9584C11.9529 19.3593 11.5279 18.9598 11.103 18.9598Z" fill="#DADEE6"/>
<path d="M4.81356 6.97587H11.103C11.6129 6.97587 11.9529 6.47654 11.9529 5.97721C11.9529 5.47788 11.5279 4.97855 11.103 4.97855H4.81356C4.3036 4.97855 3.96363 5.47788 3.96363 5.97721C3.96363 6.47654 4.3886 6.97587 4.81356 6.97587Z" fill="#DADEE6"/>
<path d="M16.0357 8.97317C17.4455 8.97317 18.5911 8.11718 18.9435 6.83319H21.0583C21.587 6.83319 21.9395 6.40519 21.9395 5.97719C21.9395 5.5492 21.4989 5.1212 21.0583 5.1212H18.9435C18.5911 3.83721 17.4455 2.98122 16.0357 2.98122C14.3614 2.98122 12.9516 4.35081 12.9516 5.97719C12.9516 7.60358 14.3614 8.97317 16.0357 8.97317Z" fill="#DADEE6"/>
<path d="M4.8448 13.8238H6.95961C7.31208 15.0222 8.4576 15.9638 9.86747 15.9638C11.5417 15.9638 12.9516 14.5942 12.9516 12.9678C12.9516 11.3414 11.5417 9.97184 9.86747 9.97184C8.4576 9.97184 7.31208 10.8278 6.95961 12.1118H4.8448C4.3161 12.1118 3.96363 12.5398 3.96363 12.9678C3.96363 13.3958 4.40422 13.8238 4.8448 13.8238Z" fill="#DADEE6"/>
<path d="M21.0805 11.9692H14.8093C14.2939 11.9692 13.9503 12.4685 13.9503 12.9678C13.9503 13.4671 14.3798 13.9665 14.8093 13.9665H21.0805C21.5959 13.9665 21.9395 13.4671 21.9395 12.9678C21.9395 12.4685 21.5959 11.9692 21.0805 11.9692Z" fill="#DADEE6"/>
</svg>
