<svg preserveAspectRatio="none" width="24" height="24" viewBox="0 0 24 24" fill="none" xmlns="http://www.w3.org/2000/svg">
<path d="M11.9838 1.99729C6.49122 1.99729 1.99726 6.49126 1.99726 11.9839C1.99726 17.4765 6.49122 21.9705 11.9838 21.9705C17.4765 21.9705 21.9704 17.4765 21.9704 11.9839C21.9704 6.49126 17.4765 1.99729 11.9838 1.99729ZM11.9838 17.077C9.1876 17.077 6.89069 14.7801 6.89069 11.9839C6.89069 11.4846 7.39002 10.9852 7.88935 10.9852C8.48854 10.9852 8.888 11.4846 8.888 11.9839C8.888 13.6816 10.2861 15.0797 11.9838 15.0797C13.6816 15.0797 15.0797 13.6816 15.0797 11.9839C15.0797 11.4846 15.4792 10.9852 16.0783 10.9852C16.5777 10.9852 17.077 11.4846 17.077 11.9839C17.077 14.7801 14.7801 17.077 11.9838 17.077Z" fill="#DADEE6"/>
</svg>
