<svg preserveAspectRatio="none" width="25" height="25" viewBox="0 0 25 25" fill="none" xmlns="http://www.w3.org/2000/svg">
<path fill-rule="evenodd" clip-rule="evenodd" d="M6.32409 2.98124C4.51371 2.98124 2.96496 4.49172 2.96496 6.3101V8.55068C2.96496 10.4934 4.53713 11.8456 6.25384 11.9667C6.27722 11.9683 6.30065 11.9692 6.32409 11.9692H8.59377C10.4041 11.9692 11.9529 10.4587 11.9529 8.64031V6.3101C11.9529 4.54298 10.5455 2.98124 8.68455 2.98124H6.32409ZM17.3093 2.98124C15.499 2.98124 13.9502 4.49172 13.9502 6.3101V8.64031C13.9502 10.4587 15.499 11.9692 17.3093 11.9692H19.579C21.3894 11.9692 22.9381 10.4587 22.9381 8.64031V6.3101C22.9381 4.54298 21.5307 2.98124 19.6698 2.98124H17.3093ZM6.32409 13.9665C4.51371 13.9665 2.96496 15.477 2.96496 17.2954V19.6256C2.96496 21.5016 4.56255 22.8327 6.25384 22.9519C6.27722 22.9536 6.30065 22.9544 6.32409 22.9544H8.59377C10.4041 22.9544 11.9529 21.4439 11.9529 19.6256V17.2954C11.9529 15.5282 10.5455 13.9665 8.68455 13.9665H6.32409ZM17.3093 13.9665C15.499 13.9665 13.9502 15.477 13.9502 17.2954V19.6256C13.9502 21.4439 15.499 22.9544 17.3093 22.9544H19.579C21.3894 22.9544 22.9381 21.4439 22.9381 19.6256V17.2954C22.9381 15.5282 21.5307 13.9665 19.6698 13.9665H17.3093Z" fill="#DADEE5"/>
</svg>
