<svg preserveAspectRatio="none" width="8" height="13" viewBox="0 0 8 13" fill="none" xmlns="http://www.w3.org/2000/svg">
<g clip-path="url(#clip0_73_807)">
<path d="M2.04904 12.1495C3.11381 12.1495 3.97797 11.2853 3.97797 10.2206V8.29165H2.04904C0.984266 8.29165 0.120104 9.15581 0.120104 10.2206C0.120104 11.2853 0.984266 12.1495 2.04904 12.1495Z" fill="#0ACF83"/>
<path d="M0.120104 6.36277C0.120104 5.29799 0.984266 4.43383 2.04904 4.43383H3.97797V8.2917H2.04904C0.984266 8.2917 0.120104 7.42754 0.120104 6.36277Z" fill="#A259FF"/>
<path d="M0.119493 2.50492C0.119493 1.44015 0.983655 0.575988 2.04843 0.575988H3.97736V4.43385H2.04843C0.983655 4.43385 0.119493 3.56969 0.119493 2.50492Z" fill="#F24E1E"/>
<path d="M3.978 0.575987H5.90693C6.9717 0.575987 7.83587 1.44015 7.83587 2.50492C7.83587 3.56969 6.9717 4.43385 5.90693 4.43385H3.978V0.575987Z" fill="#FF7262"/>
<path d="M7.83587 6.36277C7.83587 7.42754 6.9717 8.2917 5.90693 8.2917C4.84216 8.2917 3.978 7.42754 3.978 6.36277C3.978 5.29799 4.84216 4.43383 5.90693 4.43383C6.9717 4.43383 7.83587 5.29799 7.83587 6.36277Z" fill="#1ABCFE"/>
</g>
<defs>
<clipPath id="clip0_73_807">
<rect width="7.71728" height="11.5736" fill="white" transform="translate(0.119292 0.575988)"/>
</clipPath>
</defs>
</svg>
