<svg preserveAspectRatio="none" width="21" height="13" viewBox="0 0 21 13" fill="none" xmlns="http://www.w3.org/2000/svg">
<rect x="0.606354" y="0.521446" width="19.5504" height="11.8332" rx="5.91658" fill="#A855F7"/>
<path d="M6.52285 5.1518C5.81543 5.1518 5.23663 5.7306 5.23663 6.43802C5.23663 7.14543 5.81543 7.72423 6.52285 7.72423C7.23026 7.72423 7.80906 7.14543 7.80906 6.43802C7.80906 5.7306 7.23026 5.1518 6.52285 5.1518ZM14.2401 5.1518C13.5327 5.1518 12.9539 5.7306 12.9539 6.43802C12.9539 7.14543 13.5327 7.72423 14.2401 7.72423C14.9475 7.72423 15.5263 7.14543 15.5263 6.43802C15.5263 5.7306 14.9475 5.1518 14.2401 5.1518ZM10.3815 5.1518C9.67407 5.1518 9.09527 5.7306 9.09527 6.43802C9.09527 7.14543 9.67407 7.72423 10.3815 7.72423C11.0889 7.72423 11.6677 7.14543 11.6677 6.43802C11.6677 5.7306 11.0889 5.1518 10.3815 5.1518Z" fill="#EFF6FF"/>
</svg>
