<svg preserveAspectRatio="none" width="14" height="14" viewBox="0 0 14 14" fill="none" xmlns="http://www.w3.org/2000/svg">
<g clip-path="url(#clip0_73_743)">
<path fill-rule="evenodd" clip-rule="evenodd" d="M2.87541 0.0324202H11.0804C12.6441 0.0324202 13.9235 1.31179 13.9235 2.87544V11.0805C13.9235 12.6441 12.6441 13.9235 11.0804 13.9235H2.87541C1.31176 13.9235 0.0323935 12.6441 0.0323935 11.0805V2.87544C0.0323935 1.31179 1.31176 0.0324202 2.87541 0.0324202Z" fill="#3ACE01"/>
<path fill-rule="evenodd" clip-rule="evenodd" d="M6.96441 2.3335C9.77905 2.3335 12.0607 4.16058 12.0607 6.41441C12.0607 7.20166 11.7822 7.93669 11.2999 8.56008C11.276 8.59557 11.2448 8.63477 11.2055 8.67809L11.2026 8.68132C11.0378 8.87842 10.8523 9.06345 10.6483 9.23426C9.23901 10.5369 6.9193 12.0878 6.61313 11.8485C6.34698 11.6405 7.05149 10.6232 6.23869 10.4539C6.18198 10.4474 6.12543 10.4405 6.06935 10.4325L6.06828 10.4324V10.4324C3.68102 10.0932 1.86812 8.42337 1.86812 6.41441C1.86805 4.16058 4.14978 2.3335 6.96441 2.3335V2.3335Z" fill="white"/>
<path fill-rule="evenodd" clip-rule="evenodd" d="M4.00747 7.71615H5.03532C5.18152 7.71615 5.30111 7.59653 5.30111 7.45033V7.42815C5.30111 7.28195 5.18152 7.16237 5.03532 7.16237H4.29543V5.47899C4.29543 5.33278 4.17585 5.2132 4.02964 5.2132H4.00747C3.86127 5.2132 3.74168 5.33278 3.74168 5.47899V7.45029C3.74168 7.59653 3.86127 7.71615 4.00747 7.71615V7.71615ZM10.3765 6.48051V6.45833C10.3765 6.31213 10.2569 6.19255 10.1107 6.19255H9.37087V5.77169H10.1107C10.2569 5.77169 10.3765 5.65211 10.3765 5.5059V5.48373C10.3765 5.33753 10.2569 5.21794 10.1107 5.21794H9.08287C8.93667 5.21794 8.81709 5.33753 8.81709 5.48373V7.45504C8.81709 7.60124 8.93667 7.72086 9.08287 7.72086H10.1107C10.2569 7.72086 10.3765 7.60124 10.3765 7.45504V7.43286C10.3765 7.28666 10.2569 7.16707 10.1107 7.16707H9.37087V6.74622H10.1107C10.2569 6.74629 10.3765 6.62667 10.3765 6.48051V6.48051ZM8.39987 7.63691L8.39995 7.6368C8.44913 7.58721 8.47675 7.52021 8.4768 7.45037V5.47906C8.4768 5.33286 8.35722 5.21327 8.21098 5.21327H8.1888C8.0426 5.21327 7.92302 5.33286 7.92302 5.47906V6.63624L6.96231 5.34767C6.91642 5.26755 6.83001 5.21327 6.73153 5.21327H6.70936C6.56315 5.21327 6.44353 5.33286 6.44353 5.47906V7.45037C6.44353 7.59657 6.56312 7.71619 6.70936 7.71619H6.73153C6.87774 7.71619 6.99732 7.59657 6.99732 7.45037V6.27153L7.96494 7.59315C7.97089 7.60242 7.9774 7.61132 7.98442 7.61977L7.98446 7.61985C8.01105 7.6561 8.04742 7.68096 8.08794 7.69615C8.11908 7.70902 8.15313 7.71615 8.18877 7.71615H8.21094C8.25425 7.71618 8.29691 7.70552 8.33512 7.68512C8.3617 7.67247 8.3841 7.65614 8.39987 7.63691V7.63691ZM5.78142 7.71615H5.80359C5.9498 7.71615 6.06938 7.59653 6.06938 7.45033V5.47902C6.06938 5.33282 5.9498 5.21324 5.80359 5.21324H5.78142C5.63522 5.21324 5.5156 5.33282 5.5156 5.47902V7.45033C5.5156 7.59653 5.63522 7.71615 5.78142 7.71615Z" fill="#3ACE01"/>
</g>
<defs>
<clipPath id="clip0_73_743">
<rect width="13.8911" height="13.8911" fill="white" transform="translate(0.0323935 0.0324202)"/>
</clipPath>
</defs>
</svg>
