<svg preserveAspectRatio="none" width="25" height="25" viewBox="0 0 25 25" fill="none" xmlns="http://www.w3.org/2000/svg">
<path d="M19.9421 20.9571H5.9609C3.76385 20.9571 1.96626 19.1595 1.96626 16.9624V8.97318C1.96626 6.77613 3.76385 4.97854 5.9609 4.97854H19.9421C22.1392 4.97854 23.9368 6.77613 23.9368 8.97318V16.9624C23.9368 19.1595 22.1392 20.9571 19.9421 20.9571Z" fill="#DADEE6"/>
<path d="M12.9515 13.567C12.3523 13.567 11.6533 13.3673 11.1539 13.0677L6.16065 10.1716C5.66132 9.97184 5.46159 9.27278 5.76119 8.87332C5.96092 8.37399 6.65998 8.17426 7.05945 8.47385L12.0527 11.37C12.5521 11.6696 13.2511 11.6696 13.7505 11.37L18.7438 8.47385C19.2431 8.17426 19.8423 8.37399 20.1419 8.87332C20.4415 9.37265 20.2417 9.97184 19.7424 10.2714L14.7491 13.1676C14.2498 13.3673 13.5507 13.567 12.9515 13.567Z" fill="white"/>
</svg>
