<svg preserveAspectRatio="none" width="24" height="24" viewBox="0 0 24 24" fill="none" xmlns="http://www.w3.org/2000/svg">
<path d="M5.85947 13.6721H13.6721V11.719H5.85947V13.6721ZM5.85947 10.7424H17.5785V8.78923H5.85947V10.7424ZM5.85947 7.81265H17.5785V5.85948H5.85947V7.81265ZM1.95313 21.4848V3.90631C1.95313 3.36919 2.14454 2.90922 2.52736 2.5264C2.90953 2.14423 3.36918 1.95315 3.9063 1.95315H19.5316C20.0688 1.95315 20.5287 2.14423 20.9115 2.5264C21.2937 2.90922 21.4848 3.36919 21.4848 3.90631V15.6253C21.4848 16.1624 21.2937 16.6224 20.9115 17.0052C20.5287 17.3874 20.0688 17.5785 19.5316 17.5785H5.85947L1.95313 21.4848Z" fill="#DADEE5"/>
</svg>
