<svg preserveAspectRatio="none" width="16" height="16" viewBox="0 0 16 16" fill="none" xmlns="http://www.w3.org/2000/svg">
<g clip-path="url(#clip0_73_825)">
<path d="M13.1705 10.598C12.9901 10.6923 12.804 10.7755 12.6133 10.847C12.0064 11.0741 11.3634 11.1898 10.7154 11.1885C8.21377 11.1885 6.03462 9.46769 6.03462 7.25947C6.03782 6.96329 6.12001 6.67333 6.2727 6.41953C6.42539 6.16573 6.64305 5.95728 6.90321 5.81569C4.64054 5.91085 4.05901 8.26868 4.05901 9.65008C4.05901 13.5558 7.65867 13.9518 8.43422 13.9518C8.85239 13.9518 9.48309 13.8302 9.86161 13.7107L9.93086 13.6875C11.3875 13.1839 12.6292 12.1995 13.4518 10.8961C13.4769 10.8564 13.4882 10.8095 13.4837 10.7627C13.4792 10.7159 13.4593 10.6719 13.427 10.6377C13.3948 10.6035 13.3521 10.581 13.3056 10.5738C13.2591 10.5666 13.2116 10.5751 13.1705 10.598V10.598Z" fill="url(#paint0_linear_73_825)"/>
<path opacity="0.35" d="M13.1705 10.598C12.9901 10.6923 12.804 10.7755 12.6133 10.847C12.0064 11.0741 11.3634 11.1898 10.7154 11.1885C8.21377 11.1885 6.03462 9.46769 6.03462 7.25947C6.03782 6.96329 6.12001 6.67333 6.2727 6.41953C6.42539 6.16573 6.64305 5.95728 6.90321 5.81569C4.64054 5.91085 4.05901 8.26868 4.05901 9.65008C4.05901 13.5558 7.65867 13.9518 8.43422 13.9518C8.85239 13.9518 9.48309 13.8302 9.86161 13.7107L9.93086 13.6875C11.3875 13.1839 12.6292 12.1995 13.4518 10.8961C13.4769 10.8564 13.4882 10.8095 13.4837 10.7627C13.4792 10.7159 13.4593 10.6719 13.427 10.6377C13.3948 10.6035 13.3521 10.581 13.3056 10.5738C13.2591 10.5666 13.2116 10.5751 13.1705 10.598V10.598Z" fill="url(#paint1_radial_73_825)"/>
<path d="M6.54425 13.2878C6.07272 12.9951 5.66407 12.6116 5.34207 12.1596C4.97507 11.6568 4.72252 11.0798 4.60213 10.469C4.48175 9.85824 4.49645 9.22854 4.6452 8.62406C4.79396 8.01959 5.07316 7.45497 5.46322 6.96983C5.85329 6.48468 6.34478 6.09075 6.90321 5.81566C7.06816 5.73795 7.34993 5.59732 7.72475 5.6042C7.98883 5.60612 8.24887 5.66917 8.4845 5.7884C8.72012 5.90764 8.92494 6.07982 9.08289 6.29146C9.29638 6.5765 9.41408 6.92185 9.41912 7.27794C9.41912 7.26684 10.7122 3.06979 5.18982 3.06979C2.86899 3.06979 0.960517 5.2722 0.960517 7.20446C0.951363 8.2266 1.17007 9.23794 1.60073 10.165C2.30455 11.6667 3.53534 12.8576 5.05939 13.5117C6.58344 14.1657 8.29461 14.2373 9.86795 13.7128C9.31706 13.8865 8.73505 13.9387 8.16206 13.8656C7.58907 13.7926 7.03874 13.5962 6.54901 13.2899L6.54425 13.2878Z" fill="url(#paint2_linear_73_825)"/>
<path opacity="0.41" d="M6.54425 13.2878C6.07272 12.9951 5.66407 12.6116 5.34207 12.1596C4.97507 11.6568 4.72252 11.0798 4.60213 10.469C4.48175 9.85824 4.49645 9.22854 4.6452 8.62406C4.79396 8.01959 5.07316 7.45497 5.46322 6.96983C5.85329 6.48468 6.34478 6.09075 6.90321 5.81566C7.06816 5.73795 7.34993 5.59732 7.72475 5.6042C7.98883 5.60612 8.24887 5.66917 8.4845 5.7884C8.72012 5.90764 8.92494 6.07982 9.08289 6.29146C9.29638 6.5765 9.41408 6.92185 9.41912 7.27794C9.41912 7.26684 10.7122 3.06979 5.18982 3.06979C2.86899 3.06979 0.960517 5.2722 0.960517 7.20446C0.951363 8.2266 1.17007 9.23794 1.60073 10.165C2.30455 11.6667 3.53534 12.8576 5.05939 13.5117C6.58344 14.1657 8.29461 14.2373 9.86795 13.7128C9.31706 13.8865 8.73505 13.9387 8.16206 13.8656C7.58907 13.7926 7.03874 13.5962 6.54901 13.2899L6.54425 13.2878Z" fill="url(#paint3_radial_73_825)"/>
<path d="M9.00789 8.39446C8.96507 8.44997 8.83343 8.52663 8.83343 8.69368C8.83343 8.83167 8.9233 8.96436 9.08296 9.07591C9.84318 9.60457 11.2764 9.53479 11.2801 9.53479C11.8434 9.53343 12.396 9.38099 12.8803 9.09335C13.3689 8.80807 13.7744 8.39999 14.0566 7.9096C14.3388 7.41922 14.4879 6.86357 14.4891 6.29779C14.5028 5.11305 14.0661 4.32534 13.8896 3.97643C12.7693 1.78512 10.3512 0.524789 7.72165 0.524789C5.94333 0.524613 4.23641 1.22447 2.97008 2.473C1.70374 3.72153 0.979779 5.41836 0.954771 7.19651C0.980147 5.26478 2.90025 3.70469 5.18407 3.70469C5.3691 3.70469 6.42431 3.72267 7.40446 4.23706C8.26829 4.69065 8.72083 5.23835 9.03538 5.78128C9.36209 6.34536 9.42025 7.058 9.42025 7.34189C9.42025 7.62579 9.27539 8.0466 9.00789 8.39446V8.39446Z" fill="url(#paint4_radial_73_825)"/>
<path d="M9.00789 8.39446C8.96507 8.44997 8.83343 8.52663 8.83343 8.69368C8.83343 8.83167 8.9233 8.96436 9.08296 9.07591C9.84318 9.60457 11.2764 9.53479 11.2801 9.53479C11.8434 9.53343 12.396 9.38099 12.8803 9.09335C13.3689 8.80807 13.7744 8.39999 14.0566 7.9096C14.3388 7.41922 14.4879 6.86357 14.4891 6.29779C14.5028 5.11305 14.0661 4.32534 13.8896 3.97643C12.7693 1.78512 10.3512 0.524789 7.72165 0.524789C5.94333 0.524613 4.23641 1.22447 2.97008 2.473C1.70374 3.72153 0.979779 5.41836 0.954771 7.19651C0.980147 5.26478 2.90025 3.70469 5.18407 3.70469C5.3691 3.70469 6.42431 3.72267 7.40446 4.23706C8.26829 4.69065 8.72083 5.23835 9.03538 5.78128C9.36209 6.34536 9.42025 7.058 9.42025 7.34189C9.42025 7.62579 9.27539 8.0466 9.00789 8.39446V8.39446Z" fill="url(#paint5_radial_73_825)"/>
</g>
<defs>
<linearGradient id="paint0_linear_73_825" x1="4.05901" y1="9.8848" x2="13.4872" y2="9.8848" gradientUnits="userSpaceOnUse">
<stop stop-color="#0C59A4"/>
<stop offset="1" stop-color="#114A8B"/>
</linearGradient>
<radialGradient id="paint1_radial_73_825" cx="0" cy="0" r="1" gradientUnits="userSpaceOnUse" gradientTransform="translate(9.26634 9.95911) scale(5.04238 4.79026)">
<stop offset="0.72" stop-opacity="0"/>
<stop offset="0.95" stop-opacity="0.53"/>
<stop offset="1"/>
</radialGradient>
<linearGradient id="paint2_linear_73_825" x1="9.02949" y1="5.79504" x2="3.14072" y2="12.2093" gradientUnits="userSpaceOnUse">
<stop stop-color="#1B9DE2"/>
<stop offset="0.16" stop-color="#1595DF"/>
<stop offset="0.67" stop-color="#0680D7"/>
<stop offset="1" stop-color="#0078D4"/>
</linearGradient>
<radialGradient id="paint3_radial_73_825" cx="0" cy="0" r="1" gradientUnits="userSpaceOnUse" gradientTransform="translate(4.68677 11.0456) rotate(-81.3844) scale(7.5824 6.12582)">
<stop offset="0.76" stop-opacity="0"/>
<stop offset="0.95" stop-opacity="0.5"/>
<stop offset="1"/>
</radialGradient>
<radialGradient id="paint4_radial_73_825" cx="0" cy="0" r="1" gradientUnits="userSpaceOnUse" gradientTransform="translate(2.32202 3.02942) rotate(92.2906) scale(10.7103 22.8107)">
<stop stop-color="#35C1F1"/>
<stop offset="0.11" stop-color="#34C1ED"/>
<stop offset="0.23" stop-color="#2FC2DF"/>
<stop offset="0.31" stop-color="#2BC3D2"/>
<stop offset="0.67" stop-color="#36C752"/>
</radialGradient>
<radialGradient id="paint5_radial_73_825" cx="0" cy="0" r="1" gradientUnits="userSpaceOnUse" gradientTransform="translate(13.6465 4.61696) rotate(73.7398) scale(5.146 4.18473)">
<stop stop-color="#66EB6E"/>
<stop offset="1" stop-color="#66EB6E" stop-opacity="0"/>
</radialGradient>
<clipPath id="clip0_73_825">
<rect width="15.4346" height="15.4346" fill="white" transform="translate(0.260668 0.260755)"/>
</clipPath>
</defs>
</svg>
