<svg preserveAspectRatio="none" width="16" height="17" viewBox="0 0 16 17" fill="none" xmlns="http://www.w3.org/2000/svg">
<path d="M8.21283 15.0394C6.47644 15.0394 4.80437 14.3963 3.51815 13.1101C0.945728 10.5376 0.945728 6.48607 3.45384 3.97795C4.35419 3.01329 5.57609 2.37019 6.92662 2.17725C7.18386 2.11294 7.4411 2.24156 7.56973 2.49881C7.69835 2.75605 7.69835 3.01329 7.50541 3.20622C6.09058 4.81399 6.2192 7.32211 7.76266 8.86556C9.30611 10.409 11.7499 10.5376 13.3577 9.1228C13.5506 8.92987 13.8722 8.92987 14.0651 9.05849C14.3223 9.18711 14.451 9.44436 14.3867 9.7016C14.1937 11.0521 13.5506 12.2097 12.6503 13.1744C11.4284 14.3963 9.8206 15.0394 8.21283 15.0394Z" fill="#98A2B3"/>
</svg>
