<svg preserveAspectRatio="none" width="22" height="22" viewBox="0 0 22 22" fill="none" xmlns="http://www.w3.org/2000/svg">
<g opacity="0.5">
<path d="M18.1499 4.91399L12.7461 1.66331C11.7002 1.04831 10.3929 1.04831 9.34699 1.66331L3.85607 4.91399C2.89733 5.52899 2.28723 6.67112 2.28723 7.81325V13.6996C2.28723 14.8418 2.89733 15.9839 3.85607 16.5989L9.25983 19.9374C9.78278 20.2889 10.3929 20.3767 11.003 20.3767C11.6131 20.3767 12.2232 20.201 12.7461 19.9374L18.1499 16.6867C19.1086 16.0717 19.7187 15.0175 19.7187 13.7875V7.81325C19.7187 6.67112 19.1086 5.52899 18.1499 4.91399ZM11.003 14.0511C9.25983 14.0511 7.77815 12.5575 7.77815 10.8004C7.77815 9.04324 9.17267 7.54968 11.003 7.54968C12.8333 7.54968 14.2278 8.95538 14.2278 10.8004C14.2278 12.5575 12.7461 14.0511 11.003 14.0511Z" fill="#98A2B3"/>
</g>
</svg>
