<svg preserveAspectRatio="none" width="11" height="14" viewBox="0 0 11 14" fill="none" xmlns="http://www.w3.org/2000/svg">
<g clip-path="url(#clip0_73_832)">
<path d="M2.78479 10.4242C2.43798 10.4242 2.15521 10.6943 2.15521 11.0294C2.15521 11.2571 2.28647 11.4523 2.48178 11.5565L4.91583 12.8609C5.10891 12.9698 5.32682 13.0269 5.54847 13.0268C5.69666 13.0268 5.83811 13.0009 5.96938 12.9553L6.80088 12.7243V10.421C6.80432 10.4242 2.78798 10.4242 2.78467 10.4242H2.78479Z" fill="url(#paint0_linear_73_832)"/>
<path d="M2.78479 10.4242C2.43798 10.4242 2.15521 10.6943 2.15521 11.0294C2.15521 11.2571 2.28647 11.4523 2.48178 11.5565L4.91583 12.8609C5.10891 12.9698 5.32682 13.0269 5.54847 13.0268C5.69666 13.0268 5.83811 13.0009 5.96938 12.9553L6.80088 12.7243V10.421C6.80432 10.4242 2.78798 10.4242 2.78467 10.4242H2.78479Z" fill="url(#paint1_linear_73_832)"/>
<path d="M5.91592 0.853209C5.80095 0.820382 5.68192 0.803965 5.56236 0.804447C5.36375 0.804447 5.16513 0.843533 4.98663 0.934565C4.94971 0.950862 1.02758 3.08164 1.02758 3.08164C0.973726 3.10774 0.923181 3.14021 0.876074 3.1728C0.869453 3.17598 0.866016 3.17929 0.859268 3.1826C0.828966 3.20527 0.801975 3.22806 0.771801 3.25085C0.758305 3.26065 0.74481 3.27376 0.734752 3.28344C0.717946 3.29961 0.701013 3.3159 0.687644 3.3322C0.640537 3.38096 0.55969 3.48498 0.55969 3.48498C0.420987 3.68217 0.346877 3.91753 0.34758 4.15862V9.81914C0.34758 10.1544 0.630352 10.4244 0.977163 10.4244C1.06463 10.4244 1.14548 10.4081 1.21958 10.3755L2.3406 9.76719C2.54253 9.66967 2.70422 9.50364 2.78838 9.29866C2.80849 9.25639 2.8253 9.20445 2.83548 9.15225C2.83879 9.13926 2.84223 9.12297 2.84223 9.10998C2.84223 9.10361 2.84554 9.09381 2.84554 9.08732C2.84898 9.0644 2.85229 9.03843 2.85229 9.01577C2.85229 8.99616 2.85573 8.97986 2.85573 8.96038V5.9478V5.00757C2.85573 4.74402 2.9735 4.50657 3.15874 4.34068C3.15874 4.34068 3.07115 4.41873 3.15874 4.34068C3.24621 4.26263 3.36067 4.19427 3.49537 4.14881C3.62994 4.09992 6.81478 2.98743 6.81478 2.98743V1.11026L5.91592 0.853209Z" fill="url(#paint2_linear_73_832)"/>
<path d="M5.91592 0.853209C5.80095 0.820382 5.68192 0.803965 5.56236 0.804447C5.36375 0.804447 5.16513 0.843533 4.98663 0.934565C4.94971 0.950862 1.02758 3.08164 1.02758 3.08164C0.973726 3.10774 0.923181 3.14021 0.876074 3.1728C0.869453 3.17598 0.866016 3.17929 0.859268 3.1826C0.828966 3.20527 0.801975 3.22806 0.771801 3.25085C0.758305 3.26065 0.74481 3.27376 0.734752 3.28344C0.717946 3.29961 0.701013 3.3159 0.687644 3.3322C0.640537 3.38096 0.55969 3.48498 0.55969 3.48498C0.420987 3.68217 0.346877 3.91753 0.34758 4.15862V9.81914C0.34758 10.1544 0.630352 10.4244 0.977163 10.4244C1.06463 10.4244 1.14548 10.4081 1.21958 10.3755L2.3406 9.76719C2.54253 9.66967 2.70422 9.50364 2.78838 9.29866C2.80849 9.25639 2.8253 9.20445 2.83548 9.15225C2.83879 9.13926 2.84223 9.12297 2.84223 9.10998C2.84223 9.10361 2.84554 9.09381 2.84554 9.08732C2.84898 9.0644 2.85229 9.03843 2.85229 9.01577C2.85229 8.99616 2.85573 8.97986 2.85573 8.96038V5.9478V5.00757C2.85573 4.74402 2.9735 4.50657 3.15874 4.34068C3.15874 4.34068 3.07115 4.41873 3.15874 4.34068C3.24621 4.26263 3.36067 4.19427 3.49537 4.14881C3.62994 4.09992 6.81478 2.98743 6.81478 2.98743V1.11026L5.91592 0.853209Z" fill="url(#paint3_linear_73_832)"/>
<path d="M9.50148 1.86742L5.96996 0.868875C6.48165 1.06087 6.80134 1.49349 6.80134 2.02059C6.80134 2.02059 6.79816 11.5948 6.80134 11.8258C6.80478 12.3463 6.4614 12.792 5.96996 12.9579C6.07767 12.9286 9.50148 11.9754 9.50148 11.9754C10.0097 11.8193 10.3768 11.3638 10.3768 10.8206V3.02219C10.3801 2.48236 10.0097 2.02351 9.50148 1.86742V1.86742Z" fill="url(#paint4_linear_73_832)"/>
</g>
<defs>
<linearGradient id="paint0_linear_73_832" x1="2.50457" y1="11.4176" x2="11.2549" y2="12.2098" gradientUnits="userSpaceOnUse">
<stop stop-color="#F32B44"/>
<stop offset="0.6" stop-color="#A4070A"/>
</linearGradient>
<linearGradient id="paint1_linear_73_832" x1="8.43411" y1="11.9189" x2="4.54941" y2="11.5672" gradientUnits="userSpaceOnUse">
<stop stop-opacity="0.4"/>
<stop offset="1" stop-opacity="0"/>
</linearGradient>
<linearGradient id="paint2_linear_73_832" x1="6.04349" y1="0.382773" x2="-0.403717" y2="9.91106" gradientUnits="userSpaceOnUse">
<stop stop-color="#800600"/>
<stop offset="0.6" stop-color="#C72127"/>
<stop offset="0.728" stop-color="#C13959"/>
<stop offset="0.847" stop-color="#BC4B81"/>
<stop offset="0.942" stop-color="#B95799"/>
<stop offset="1" stop-color="#B85BA2"/>
</linearGradient>
<linearGradient id="paint3_linear_73_832" x1="6.18163" y1="0.192051" x2="4.81628" y2="2.2099" gradientUnits="userSpaceOnUse">
<stop stop-opacity="0.4"/>
<stop offset="1" stop-opacity="0"/>
</linearGradient>
<linearGradient id="paint4_linear_73_832" x1="8.17586" y1="0.182126" x2="8.17586" y2="12.1077" gradientUnits="userSpaceOnUse">
<stop stop-color="#FFB900"/>
<stop offset="0.166" stop-color="#EF8400"/>
<stop offset="0.313" stop-color="#E25C01"/>
<stop offset="0.429" stop-color="#DB4401"/>
<stop offset="0.5" stop-color="#D83B01"/>
</linearGradient>
<clipPath id="clip0_73_832">
<rect width="10.0325" height="12.2228" fill="white" transform="translate(0.347585 0.804117)"/>
</clipPath>
</defs>
</svg>
