<svg preserveAspectRatio="none" width="21" height="21" viewBox="0 0 21 21" fill="none" xmlns="http://www.w3.org/2000/svg">
<path d="M10.4588 1.74315C5.66518 1.74315 1.74309 5.66524 1.74309 10.4589C1.74309 15.2526 5.66518 19.1747 10.4588 19.1747C15.2525 19.1747 19.1746 15.2526 19.1746 10.4589C19.1746 5.66524 15.2525 1.74315 10.4588 1.74315ZM10.4588 15.6012C7.6698 15.6012 5.31655 13.3351 5.31655 10.4589C5.31655 8.97723 6.01381 7.49555 7.14686 6.53682C7.49549 6.27534 8.10559 6.27534 8.36706 6.62397C8.71569 7.05976 8.62854 7.58271 8.27991 7.93134C7.49549 8.54144 7.0597 9.50017 7.0597 10.5461C7.0597 12.3764 8.54138 13.9452 10.4588 13.9452C12.3763 13.9452 13.858 12.4635 13.858 10.5461C13.858 9.58733 13.4222 8.6286 12.6378 7.93134C12.2892 7.66986 12.202 7.05976 12.5506 6.71113C12.8993 6.3625 13.4222 6.27534 13.7708 6.62397C14.9039 7.58271 15.6011 9.06438 15.6011 10.5461C15.6011 13.3351 13.2479 15.6012 10.4588 15.6012ZM10.4588 4.79367C10.8946 4.79367 11.3304 5.1423 11.3304 5.66524V8.89007C11.3304 9.32586 10.8946 9.76164 10.4588 9.76164C10.0231 9.76164 9.58727 9.32586 9.58727 8.89007V5.66524C9.58727 5.1423 10.0231 4.79367 10.4588 4.79367Z" fill="#98A2B3"/>
</svg>
