<svg preserveAspectRatio="none" width="17" height="17" viewBox="0 0 17 17" fill="none" xmlns="http://www.w3.org/2000/svg">
<path d="M17.0982 5.53844C17.0982 6.67279 16.8748 7.79603 16.4407 8.84403C16.0066 9.89203 15.3704 10.8443 14.5683 11.6464C13.7661 12.4485 12.8139 13.0847 11.7659 13.5188C10.7179 13.9529 9.59466 14.1764 8.46031 14.1764C6.16939 14.1764 3.97231 13.2663 2.35238 11.6464C0.73246 10.0264 -0.177603 7.82936 -0.177603 5.53844C-0.177603 3.24752 0.73246 1.05043 2.35238 -0.569496C3.97231 -2.18942 6.16939 -3.09949 8.46031 -3.09949C9.59466 -3.09949 10.7179 -2.87606 11.7659 -2.44196C12.8139 -2.00787 13.7661 -1.3716 14.5683 -0.569496C15.3704 0.232609 16.0066 1.18484 16.4407 2.23285C16.8748 3.28085 17.0982 4.40409 17.0982 5.53844V5.53844Z" fill="url(#paint0_linear_73_842)" stroke="#CDCDCD" stroke-width="0.0717802" stroke-linecap="round" stroke-linejoin="round"/>
<path d="M16.4214 5.53842C16.4214 7.64982 15.5827 9.67475 14.0897 11.1677C12.5967 12.6607 10.5718 13.4995 8.46037 13.4995C6.34897 13.4995 4.32404 12.6607 2.83105 11.1677C1.33806 9.67475 0.499312 7.64982 0.499311 5.53842C0.499312 3.42701 1.33806 1.40208 2.83105 -0.090905C4.32404 -1.58389 6.34897 -2.42265 8.46037 -2.42265C10.5718 -2.42265 12.5967 -1.58389 14.0897 -0.090905C15.5827 1.40208 16.4214 3.42701 16.4214 5.53842Z" fill="url(#paint1_radial_73_842)"/>
<path d="M8.46033 -2.00745C8.39603 -2.00745 8.34426 -1.95569 8.34426 -1.89139V-0.552571C8.34426 -0.488266 8.39603 -0.436504 8.46033 -0.436504C8.52464 -0.436504 8.57641 -0.488266 8.57641 -0.552571V-1.89139C8.57641 -1.95569 8.52464 -2.00745 8.46033 -2.00745ZM7.70101 -1.95946C7.69332 -1.96029 7.6854 -1.96029 7.67741 -1.95937C7.61345 -1.95269 7.56734 -1.89584 7.57402 -1.83188L7.63252 -1.27178C7.63919 -1.20782 7.69606 -1.1617 7.76001 -1.16838C7.82397 -1.17505 7.87009 -1.23191 7.86341 -1.29587L7.80495 -1.85597C7.7991 -1.91193 7.75482 -1.95424 7.701 -1.95946H7.70101ZM9.22497 -1.95891C9.17114 -1.95373 9.12686 -1.91143 9.12097 -1.85547L9.06206 -1.29542C9.05534 -1.23146 9.10146 -1.17455 9.16541 -1.16782C9.22936 -1.1611 9.28622 -1.20717 9.29294 -1.27112L9.35186 -1.83122C9.35859 -1.89517 9.31246 -1.95204 9.24851 -1.95876C9.24052 -1.95959 9.23266 -1.95959 9.22497 -1.95891V-1.95891ZM6.921 -1.84635C6.91327 -1.84629 6.90542 -1.84552 6.89756 -1.84387C6.83465 -1.83055 6.79472 -1.76917 6.80804 -1.70626L7.08531 -0.396502C7.09863 -0.333592 7.16001 -0.293665 7.22292 -0.306981C7.28583 -0.320299 7.32575 -0.381631 7.31244 -0.44454L7.03517 -1.75435C7.0235 -1.8094 6.97508 -1.84685 6.921 -1.84642L6.921 -1.84635ZM10.0049 -1.84525C9.95086 -1.8458 9.90241 -1.80831 9.89072 -1.75328L9.6125 -0.443669C9.59912 -0.380768 9.63903 -0.319372 9.70192 -0.306009C9.76482 -0.292635 9.82621 -0.332536 9.83957 -0.395429L10.1178 -1.70504C10.1312 -1.76794 10.0913 -1.82934 10.0284 -1.8427C10.0205 -1.84435 10.0127 -1.84518 10.0049 -1.84518L10.0049 -1.84525ZM6.17659 -1.63646C6.16157 -1.63784 6.14605 -1.63618 6.13076 -1.63111C6.0696 -1.61123 6.03635 -1.54604 6.05622 -1.48489L6.23025 -0.949277C6.25013 -0.888118 6.31537 -0.854869 6.37652 -0.874739C6.43768 -0.894621 6.47089 -0.959857 6.45101 -1.02101L6.27699 -1.55662C6.2621 -1.60248 6.22167 -1.63264 6.17659 -1.63647V-1.63646ZM10.7451 -1.63618C10.7 -1.63235 10.6596 -1.6022 10.6447 -1.55633L10.4706 -1.02078C10.4507 -0.959624 10.484 -0.894382 10.5451 -0.874504C10.6063 -0.854622 10.6715 -0.887849 10.6914 -0.948991L10.8655 -1.4846C10.8854 -1.54575 10.8522 -1.61099 10.791 -1.63087C10.7757 -1.63584 10.7602 -1.63746 10.7451 -1.6362V-1.63618ZM5.44046 -1.36708C5.42538 -1.3668 5.41012 -1.36349 5.39543 -1.35696C5.3367 -1.33084 5.3104 -1.26253 5.33652 -1.20377L5.88029 0.0196268C5.90641 0.0783836 5.97472 0.104657 6.03348 0.0785376C6.09221 0.052424 6.11856 -0.0158894 6.09244 -0.074649L5.54862 -1.29805C5.52904 -1.34212 5.4857 -1.36795 5.44046 -1.36708V-1.36708ZM11.4896 -1.36297C11.4443 -1.3638 11.401 -1.33813 11.3813 -1.29409L10.8359 -0.0714428C10.8097 -0.012719 10.8359 0.0556457 10.8946 0.0818448C10.9533 0.108041 11.0217 0.0818597 11.0479 0.0231359L11.5933 -1.19951C11.6195 -1.25823 11.5933 -1.3266 11.5346 -1.3528C11.5199 -1.35934 11.5046 -1.36264 11.4896 -1.36297V-1.36297ZM4.75718 -1.00555C4.7349 -1.0072 4.71194 -1.00224 4.69105 -0.990162C4.63536 -0.95801 4.61642 -0.887299 4.64857 -0.831611L4.93016 -0.343894C4.96231 -0.288204 5.03302 -0.269266 5.08871 -0.301418C5.14439 -0.333571 5.16334 -0.404275 5.13119 -0.459965L4.84961 -0.947678C4.8295 -0.982486 4.79432 -1.00294 4.75718 -1.00554V-1.00555ZM12.1635 -1.00555C12.1263 -1.00306 12.0912 -0.982495 12.0711 -0.947687L11.7895 -0.459974C11.7573 -0.404283 11.7763 -0.333579 11.832 -0.301427C11.8877 -0.269274 11.9584 -0.288215 11.9906 -0.343903L12.2721 -0.83162C12.3043 -0.887307 12.2854 -0.958018 12.2297 -0.990171C12.2088 -1.00222 12.1858 -1.0071 12.1635 -1.00555V-1.00555ZM4.09368 -0.591723C4.07135 -0.590895 4.04899 -0.583724 4.02947 -0.569578C3.97742 -0.531819 3.96591 -0.459522 4.00368 -0.407471L4.78981 0.676212C4.82757 0.728263 4.89991 0.739769 4.95196 0.702022C5.00401 0.664263 5.01552 0.591966 4.97774 0.539915L4.19157 -0.543768C4.16796 -0.576301 4.13089 -0.592981 4.09368 -0.59171V-0.591723ZM12.8353 -0.585819C12.7981 -0.587198 12.761 -0.570515 12.7374 -0.538029L11.9497 0.544602C11.9119 0.5966 11.9233 0.668929 11.9753 0.706759C12.0273 0.744587 12.0997 0.733202 12.1375 0.681223L12.9251 -0.401408C12.9629 -0.453409 12.9515 -0.525735 12.8995 -0.563565C12.88 -0.577739 12.8576 -0.58502 12.8353 -0.585819V-0.585819ZM3.50062 -0.094349C3.47099 -0.0960035 3.44076 -0.0861041 3.41686 -0.0645928C3.36907 -0.0215703 3.36523 0.051526 3.40826 0.099319L3.78507 0.517905C3.82809 0.565698 3.90118 0.569539 3.94897 0.526505C3.99677 0.483483 4.00062 0.41034 3.95758 0.362547L3.58083 -0.0559882C3.55932 -0.0798958 3.53025 -0.0928037 3.50062 -0.0943617V-0.094349ZM13.4209 -0.0935201C13.3913 -0.0918656 13.3622 -0.0790447 13.3407 -0.0551509L12.9639 0.363338C12.9209 0.411126 12.9247 0.484268 12.9725 0.527296C13.0203 0.570324 13.0934 0.566465 13.1364 0.518692L13.5132 0.100207C13.5563 0.0524165 13.5524 -0.020726 13.5046 -0.0637513C13.4807 -0.0852598 13.4506 -0.09506 13.4209 -0.0935075L13.4209 -0.0935201ZM2.9322 0.451652C2.90258 0.453306 2.87356 0.466129 2.85205 0.490025C2.80903 0.537818 2.81288 0.61091 2.86066 0.653933L3.85567 1.54966C3.90347 1.59269 3.97656 1.58884 4.01958 1.54106C4.0626 1.49327 4.05881 1.42017 4.011 1.37715L3.01594 0.481421C2.99203 0.459912 2.96181 0.450107 2.93218 0.451665L2.9322 0.451652ZM13.9921 0.455565C13.9624 0.45391 13.9322 0.463786 13.9083 0.485275L12.9126 1.38031C12.8648 1.42329 12.8609 1.49639 12.9039 1.54421C12.9469 1.59203 13.02 1.59592 13.0678 1.55293L14.0635 0.657896C14.1113 0.614907 14.1152 0.541812 14.0722 0.493989C14.0507 0.470081 14.0217 0.457142 13.9921 0.455565H13.9921ZM2.45951 1.05945C2.4223 1.05808 2.38521 1.07484 2.36159 1.10735C2.32379 1.15937 2.33525 1.23165 2.38729 1.26945L2.84289 1.60047C2.89491 1.63827 2.96719 1.62686 3.00499 1.57482C3.04279 1.5228 3.03135 1.45047 2.97935 1.41267L2.52374 1.08165C2.50424 1.06748 2.48185 1.06025 2.45952 1.05945L2.45951 1.05945ZM14.4643 1.06367C14.442 1.0645 14.4196 1.07164 14.4001 1.08581L13.9443 1.41654C13.8922 1.4543 13.8807 1.52664 13.9185 1.57869C13.9562 1.63074 14.0285 1.6422 14.0806 1.60445L14.5364 1.27373C14.5885 1.23597 14.5999 1.16367 14.5622 1.11162C14.5386 1.07909 14.5015 1.06241 14.4643 1.06368V1.06367ZM2.01779 1.70778C1.98065 1.71027 1.94551 1.73084 1.92542 1.76564C1.89326 1.82133 1.91221 1.89204 1.9679 1.92419L3.12732 2.5936C3.18301 2.62575 3.25372 2.6068 3.28587 2.55112C3.31802 2.49543 3.29908 2.42472 3.24339 2.39257L2.08396 1.72316C2.06308 1.71111 2.04007 1.70623 2.01779 1.70777V1.70778ZM14.9029 1.70778C14.8806 1.70613 14.8576 1.71109 14.8367 1.72317L13.6773 2.39258C13.6216 2.42473 13.6027 2.49544 13.6348 2.55113C13.667 2.60682 13.7377 2.62576 13.7933 2.5936L14.9528 1.9242C15.0085 1.89205 15.0275 1.82134 14.9953 1.76565C14.9752 1.73085 14.94 1.71039 14.9029 1.7078V1.70778ZM1.68381 2.39883C1.63857 2.39773 1.5952 2.42362 1.57555 2.46766C1.54936 2.52639 1.57554 2.59475 1.63427 2.62095L2.14863 2.85038C2.20736 2.87657 2.27573 2.8504 2.30192 2.79167C2.32812 2.73294 2.30188 2.66458 2.24316 2.63838L1.72884 2.40895C1.71417 2.40239 1.69888 2.39913 1.68381 2.39883V2.39883ZM15.2391 2.4036C15.224 2.40388 15.2087 2.40719 15.194 2.41372L14.6796 2.64275C14.6208 2.66892 14.5945 2.73724 14.6207 2.79599C14.6469 2.85473 14.7152 2.881 14.774 2.85485L15.2885 2.62577C15.3472 2.59963 15.3734 2.53128 15.3473 2.47253C15.3277 2.42847 15.2843 2.4027 15.2391 2.4036V2.4036ZM1.38615 3.1211C1.34107 3.12488 1.30066 3.15499 1.28572 3.20085C1.26581 3.26199 1.29894 3.32725 1.3601 3.34718L2.63304 3.76195C2.69418 3.78186 2.75944 3.74869 2.77937 3.68756C2.79928 3.62642 2.76613 3.56116 2.70498 3.54124L1.43204 3.12646C1.41676 3.12147 1.40118 3.11984 1.38615 3.12111V3.1211ZM15.5362 3.12607C15.5212 3.12469 15.5057 3.12634 15.4904 3.13141L14.2171 3.54529C14.156 3.56517 14.1228 3.63041 14.1427 3.69156C14.1625 3.75272 14.2278 3.78593 14.2889 3.76606L15.5621 3.35218C15.6233 3.3323 15.6565 3.26706 15.6367 3.2059C15.6217 3.16004 15.5813 3.12988 15.5362 3.12606V3.12607ZM1.20071 3.87928C1.14663 3.87873 1.09813 3.91626 1.08643 3.9713C1.07306 4.0342 1.11296 4.09559 1.17585 4.10896L1.72674 4.22603C1.78964 4.23941 1.85103 4.1995 1.8644 4.13661C1.87777 4.07371 1.83788 4.01232 1.77499 3.99895L1.22415 3.88188C1.21629 3.88023 1.20843 3.8794 1.20071 3.8794V3.87928ZM15.7202 3.88039C15.7125 3.88045 15.7047 3.88148 15.6968 3.88286L15.146 3.99989C15.0831 4.01326 15.0432 4.07459 15.0565 4.1375C15.0699 4.20039 15.1313 4.24032 15.1942 4.22696L15.745 4.10994C15.8079 4.09657 15.8479 4.03519 15.8345 3.97228C15.8228 3.91725 15.7743 3.87981 15.7202 3.88026L15.7202 3.88039ZM1.06034 4.64191C1.00651 4.64707 0.962205 4.6893 0.956293 4.74526C0.949537 4.8092 0.995543 4.86614 1.05949 4.8729L2.39089 5.01366C2.45483 5.02042 2.51177 4.97437 2.51853 4.91042C2.52529 4.84647 2.47923 4.78954 2.41528 4.78278L1.08388 4.64201C1.07589 4.64119 1.06803 4.64119 1.06034 4.64192V4.64191ZM15.8616 4.65192C15.8539 4.6511 15.846 4.6511 15.838 4.65202L14.5064 4.79098C14.4425 4.79766 14.3964 4.85452 14.403 4.91847C14.4097 4.98243 14.4666 5.02854 14.5305 5.02186L15.8621 4.8829C15.926 4.87623 15.9721 4.81937 15.9655 4.75541C15.9596 4.69945 15.9154 4.65715 15.8616 4.65192L15.8616 4.65192ZM1.03779 5.42257C0.97349 5.42257 0.921732 5.47433 0.921732 5.53864C0.921732 5.60294 0.97349 5.65471 1.03779 5.65471H1.60096C1.66526 5.65471 1.71707 5.60294 1.71707 5.53864C1.71707 5.47433 1.66526 5.42257 1.60096 5.42257H1.03779ZM15.3197 5.42257C15.2554 5.42257 15.2036 5.47433 15.2036 5.53864C15.2036 5.60294 15.2554 5.65471 15.3197 5.65471H15.8829C15.9472 5.65471 15.9989 5.60294 15.9989 5.53864C15.9989 5.47433 15.9472 5.42257 15.8829 5.42257H15.3197ZM2.41373 6.05531C2.40604 6.05448 2.39818 6.05448 2.39018 6.05541L1.05858 6.19437C0.994623 6.20104 0.948523 6.2579 0.955191 6.32186C0.961864 6.38581 1.01872 6.43193 1.08267 6.42525L2.41428 6.28629C2.47824 6.27962 2.52434 6.22276 2.51767 6.1588C2.51182 6.10284 2.46755 6.06054 2.41373 6.05531H2.41373ZM14.5062 6.06353C14.4524 6.06868 14.4081 6.11092 14.4022 6.16687C14.3954 6.23082 14.4414 6.28776 14.5054 6.29451L15.8368 6.43528C15.9007 6.44203 15.9577 6.39598 15.9644 6.33204C15.9712 6.26809 15.9251 6.21115 15.8612 6.20439L14.5298 6.06363C14.5218 6.0628 14.5139 6.0628 14.5062 6.06353L14.5062 6.06353ZM1.74998 6.84765C1.74226 6.84771 1.73441 6.84848 1.72655 6.85013L1.17566 6.96715C1.11276 6.98052 1.07288 7.04191 1.08624 7.10481C1.09962 7.16771 1.161 7.20759 1.22391 7.19423L1.77479 7.07726C1.83769 7.06388 1.87756 7.0025 1.8642 6.9396C1.85251 6.88456 1.80406 6.84712 1.74999 6.84758L1.74998 6.84765ZM15.1705 6.84876C15.1165 6.8482 15.068 6.88569 15.0563 6.94073C15.0429 7.00362 15.0828 7.06502 15.1457 7.07839L15.6966 7.19545C15.7595 7.20883 15.8209 7.16898 15.8342 7.10608C15.8476 7.04319 15.8077 6.98175 15.7448 6.96838L15.194 6.85131C15.1861 6.84965 15.1783 6.84883 15.1705 6.84883L15.1705 6.84876ZM2.67763 7.30591C2.6626 7.30453 2.64708 7.30619 2.63179 7.31126L1.35855 7.72514C1.29739 7.74502 1.26418 7.81026 1.28406 7.87141C1.30394 7.93257 1.36918 7.96578 1.43033 7.9459L2.70353 7.53203C2.76469 7.51214 2.79794 7.4469 2.77806 7.38575C2.76315 7.33988 2.72271 7.30972 2.67763 7.3059V7.30591ZM14.2418 7.31002C14.1967 7.3138 14.1563 7.34392 14.1414 7.38977C14.1214 7.45091 14.1546 7.51618 14.2157 7.5361L15.4887 7.95088C15.5498 7.97079 15.6151 7.93761 15.635 7.87649C15.6549 7.81535 15.6218 7.75008 15.5606 7.73016L14.2877 7.31538C14.2724 7.31039 14.2568 7.30876 14.2418 7.31003V7.31002ZM2.19177 8.21242C2.17668 8.21269 2.16141 8.21595 2.14673 8.22248L1.63221 8.45156C1.57347 8.4777 1.54725 8.54605 1.5734 8.6048C1.59957 8.66354 1.6679 8.68976 1.72664 8.66361L2.24115 8.43458C2.2999 8.40843 2.32612 8.34008 2.29997 8.28134C2.28036 8.23728 2.237 8.21151 2.19177 8.21241V8.21242ZM14.7271 8.21683C14.6818 8.21572 14.6384 8.24162 14.6188 8.28566C14.5926 8.34439 14.6188 8.41275 14.6775 8.43894L15.1918 8.66838C15.2505 8.69457 15.3189 8.66839 15.3451 8.60966C15.3713 8.55094 15.3451 8.48257 15.2864 8.45638L14.7721 8.22695C14.7574 8.22038 14.7421 8.21713 14.7271 8.21682V8.21683ZM3.1935 8.46835C3.17122 8.4667 3.14821 8.47166 3.12732 8.48374L1.9679 9.15314C1.91221 9.1853 1.89326 9.256 1.92542 9.31169C1.95757 9.36738 2.02827 9.38632 2.08396 9.35417L3.24339 8.68481C3.29908 8.65266 3.31802 8.5819 3.28587 8.52622C3.26577 8.49141 3.23064 8.47095 3.1935 8.46836V8.46835ZM13.7272 8.46835C13.6901 8.47083 13.6549 8.4914 13.6348 8.52621C13.6027 8.5819 13.6216 8.65265 13.6773 8.68481L14.8367 9.35416C14.8924 9.38631 14.9632 9.36737 14.9953 9.31168C15.0275 9.25599 15.0085 9.18529 14.9528 9.15313L13.7933 8.48373C13.7725 8.47168 13.7495 8.4668 13.7272 8.46834V8.46835ZM2.9043 9.45069C2.88196 9.45152 2.8596 9.45872 2.84008 9.47289L2.38427 9.80361C2.33222 9.84137 2.32071 9.91367 2.35846 9.96572C2.39623 10.0178 2.46853 10.0293 2.52057 9.9915L2.97643 9.66078C3.02848 9.62302 3.03999 9.55072 3.00224 9.49868C2.97863 9.46615 2.94151 9.44941 2.9043 9.45068V9.45069ZM14.0136 9.45461C13.9764 9.45323 13.9393 9.46999 13.9157 9.5025C13.8779 9.55452 13.8893 9.62686 13.9414 9.66465L14.397 9.99568C14.449 10.0335 14.5213 10.022 14.5591 9.96998C14.5969 9.91795 14.5855 9.84567 14.5334 9.80787L14.0778 9.47685C14.0583 9.46267 14.0359 9.45539 14.0136 9.45459L14.0136 9.45461ZM3.93664 9.49468C3.90701 9.49303 3.87679 9.5029 3.85288 9.52439L2.85722 10.4194C2.8094 10.4624 2.80551 10.5355 2.8485 10.5833C2.89149 10.6311 2.96459 10.635 3.01241 10.592L4.00807 9.69701C4.05589 9.65402 4.05978 9.58093 4.01679 9.5331C3.99531 9.5092 3.96627 9.49626 3.93664 9.49468ZM12.9813 9.49788C12.9516 9.49954 12.9226 9.51236 12.9011 9.53625C12.858 9.58405 12.8619 9.65714 12.9097 9.70016L13.9047 10.5959C13.9525 10.6389 14.0256 10.6351 14.0687 10.5873C14.1117 10.5395 14.1078 10.4664 14.0601 10.4234L13.065 9.52765C13.0411 9.50614 13.0109 9.49634 12.9813 9.49789V9.49788ZM4.88121 10.3482C4.84401 10.3468 4.80687 10.3635 4.78323 10.396L3.99565 11.4786C3.95782 11.5306 3.96921 11.6029 4.02119 11.6408C4.07318 11.6786 4.14551 11.6672 4.18334 11.6152L4.97092 10.5326C5.00875 10.4806 4.99737 10.4082 4.94539 10.3704C4.92589 10.3562 4.90354 10.349 4.88121 10.3482ZM12.033 10.353C12.0107 10.3539 11.9883 10.361 11.9688 10.3752C11.9167 10.4129 11.9052 10.4852 11.943 10.5373L12.7291 11.621C12.7668 11.673 12.8391 11.6845 12.8912 11.6468C12.9432 11.609 12.9548 11.5367 12.917 11.4847L12.1309 10.401C12.1073 10.3685 12.0702 10.3518 12.033 10.353V10.353ZM3.8645 10.5202C3.83487 10.5219 3.80582 10.5347 3.78431 10.5586L3.4075 10.9771C3.36447 11.0249 3.36828 11.098 3.41607 11.1411C3.46386 11.1841 3.53695 11.1802 3.57998 11.1324L3.95683 10.7139C3.99987 10.6662 3.99601 10.593 3.94823 10.55C3.92433 10.5285 3.89415 10.5187 3.86452 10.5202L3.8645 10.5202ZM13.0555 10.5208C13.0258 10.5191 12.9957 10.529 12.9718 10.5506C12.924 10.5936 12.9201 10.6667 12.9631 10.7145L13.3399 11.133C13.3829 11.1808 13.456 11.1847 13.5038 11.1417C13.5516 11.0986 13.5554 11.0255 13.5124 10.9777L13.1356 10.5592C13.1141 10.5353 13.0851 10.5223 13.0554 10.5208L13.0555 10.5208ZM5.98103 10.9851C5.9358 10.984 5.89248 11.0099 5.87283 11.0539L5.32735 12.2765C5.30116 12.3353 5.32734 12.4036 5.38607 12.4298C5.44479 12.456 5.51315 12.4298 5.53935 12.3711L6.08483 11.1485C6.11102 11.0898 6.08484 11.0214 6.02611 10.9952C6.01144 10.9886 5.99611 10.9854 5.98103 10.9851ZM10.9323 10.9884C10.9172 10.9887 10.9019 10.992 10.8872 10.9985C10.8285 11.0246 10.8022 11.0929 10.8283 11.1517L11.3721 12.3751C11.3982 12.4338 11.4665 12.4601 11.5253 12.434C11.584 12.4079 11.6103 12.3396 11.5842 12.2808L11.0404 11.0574C11.0208 11.0134 10.9775 10.9876 10.9323 10.9884V10.9884ZM5.02253 11.3631C4.98539 11.3656 4.95025 11.3861 4.93016 11.4209L4.64857 11.9087C4.61642 11.9644 4.63536 12.0351 4.69105 12.0672C4.74674 12.0994 4.81746 12.0804 4.84961 12.0247L5.13119 11.537C5.16334 11.4813 5.1444 11.4106 5.08871 11.3785C5.06783 11.3664 5.04482 11.3615 5.02253 11.3631V11.3631ZM11.8981 11.3631C11.8759 11.3614 11.8529 11.3664 11.832 11.3785C11.7763 11.4106 11.7574 11.4813 11.7895 11.537L12.0711 12.0247C12.1033 12.0804 12.174 12.0994 12.2297 12.0672C12.2854 12.0351 12.3043 11.9644 12.2721 11.9087L11.9906 11.421C11.9705 11.3861 11.9353 11.3657 11.8981 11.3631V11.3631ZM7.19536 11.3806C7.14129 11.38 7.09284 11.4175 7.08115 11.4725L6.80292 12.7822C6.78955 12.845 6.82945 12.9065 6.89234 12.9198C6.95524 12.9332 7.01664 12.8933 7.03 12.8304L7.30822 11.5208C7.3216 11.4579 7.28169 11.3965 7.2188 11.3831C7.21094 11.3815 7.20309 11.3806 7.19537 11.3806L7.19536 11.3806ZM9.7212 11.3814C9.71348 11.3815 9.70568 11.3822 9.69782 11.3839C9.63491 11.3972 9.59498 11.4585 9.6083 11.5214L9.88557 12.8312C9.89889 12.8942 9.96026 12.9341 10.0232 12.9208C10.0861 12.9074 10.126 12.8461 10.1127 12.7832L9.83537 11.4734C9.82371 11.4184 9.77528 11.3809 9.72121 11.3814L9.7212 11.3814ZM8.46033 11.5135C8.39603 11.5135 8.34426 11.5653 8.34426 11.6296V12.9684C8.34426 13.0327 8.39603 13.0844 8.46033 13.0844C8.52464 13.0844 8.57641 13.0327 8.57641 12.9684V11.6296C8.57641 11.5653 8.52464 11.5135 8.46033 11.5135ZM6.32973 11.9461C6.28466 11.9499 6.24421 11.9801 6.2293 12.026L6.05522 12.5616C6.03534 12.6227 6.06857 12.688 6.12971 12.7078C6.19087 12.7277 6.2561 12.6944 6.27599 12.6333L6.45006 12.0977C6.46994 12.0366 6.43671 11.9713 6.37557 11.9515C6.36029 11.9465 6.34476 11.9449 6.32973 11.9461V11.9461ZM10.59 11.9464C10.575 11.945 10.5595 11.9467 10.5442 11.9517C10.483 11.9716 10.4498 12.0368 10.4697 12.098L10.6437 12.6336C10.6636 12.6947 10.7288 12.7279 10.79 12.7081C10.8511 12.6882 10.8844 12.623 10.8645 12.5619L10.6904 12.0262C10.6755 11.9804 10.6351 11.9502 10.59 11.9464V11.9464ZM7.73177 12.2447C7.67794 12.2499 7.6336 12.2921 7.62772 12.3481L7.56886 12.9082C7.56213 12.9721 7.6082 13.029 7.67216 13.0357C7.73611 13.0425 7.79302 12.9964 7.79975 12.9324L7.8586 12.3724C7.86533 12.3084 7.81926 12.2515 7.75531 12.2448C7.74732 12.244 7.73945 12.244 7.73176 12.2447L7.73177 12.2447ZM9.18425 12.2452C9.17655 12.2444 9.16864 12.2444 9.16064 12.2453C9.09669 12.252 9.05056 12.3089 9.05724 12.3728L9.11575 12.933C9.12243 12.9969 9.17929 13.043 9.24324 13.0363C9.3072 13.0297 9.35332 12.9728 9.34664 12.9088L9.28818 12.3487C9.28234 12.2928 9.23805 12.2505 9.18423 12.2452L9.18425 12.2452Z" fill="#F4F2F3"/>
<g opacity="0.409" filter="url(#filter0_f_73_842)">
<path d="M13.9007 0.89579L7.55031 4.58537L3.53516 10.9064L9.409 6.55567L13.9007 0.89579Z" fill="black"/>
</g>
<path d="M9.37054 6.49153L7.55032 4.58535L14.0073 0.241733L9.37054 6.49153Z" fill="#FF5150"/>
<path d="M9.37055 6.49163L7.55033 4.58544L2.91356 10.8352L9.37055 6.49163Z" fill="#F1F1F1"/>
<path opacity="0.243" d="M2.91349 10.8352L9.37048 6.49157L14.0072 0.241768L2.91349 10.8352Z" fill="black"/>
<defs>
<filter id="filter0_f_73_842" x="3.01553" y="0.376166" width="11.4048" height="11.0498" filterUnits="userSpaceOnUse" color-interpolation-filters="sRGB">
<feFlood flood-opacity="0" result="BackgroundImageFix"/>
<feBlend mode="normal" in="SourceGraphic" in2="BackgroundImageFix" result="shape"/>
<feGaussianBlur stdDeviation="0.259812" result="effect1_foregroundBlur_73_842"/>
</filter>
<linearGradient id="paint0_linear_73_842" x1="8.46032" y1="14.1764" x2="8.46032" y2="-3.09949" gradientUnits="userSpaceOnUse">
<stop stop-color="#BDBDBD"/>
<stop offset="1" stop-color="white"/>
</linearGradient>
<radialGradient id="paint1_radial_73_842" cx="0" cy="0" r="1" gradientUnits="userSpaceOnUse" gradientTransform="translate(8.49661 4.3777) scale(8.63796 8.63796)">
<stop stop-color="#06C2E7"/>
<stop offset="0.25" stop-color="#0DB8EC"/>
<stop offset="0.5" stop-color="#12AEF1"/>
<stop offset="0.75" stop-color="#1F86F9"/>
<stop offset="1" stop-color="#107DDD"/>
</radialGradient>
</defs>
</svg>
