<svg preserveAspectRatio="none" width="17" height="16" viewBox="0 0 17 16" fill="none" xmlns="http://www.w3.org/2000/svg">
<g clip-path="url(#clip0_73_858)">
<path d="M8.60818 3.46355C6.293 3.46355 4.42799 5.32856 4.42799 7.64374C4.42799 9.95893 6.293 11.8239 8.60818 11.8239C10.9234 11.8239 12.7884 9.95893 12.7884 7.64374C12.7884 5.32856 10.9234 3.46355 8.60818 3.46355Z" fill="#B8BFCC"/>
<path d="M8.60823 3.07772C8.99409 3.07772 9.25134 2.82048 9.25134 2.43462V1.40565C9.25134 1.01978 8.99409 0.762539 8.60823 0.762539C8.22237 0.762539 7.96512 1.01978 7.96512 1.40565V2.43462C7.96512 2.75617 8.22237 3.07772 8.60823 3.07772Z" fill="#B8BFCC"/>
<path d="M4.29944 4.42816C4.42806 4.55678 4.62099 4.62109 4.74961 4.62109C4.87823 4.62109 5.07116 4.55678 5.19979 4.42816C5.45703 4.17092 5.45703 3.78505 5.19979 3.52781L4.49237 2.82039C4.23513 2.56315 3.84926 2.56315 3.59202 2.82039C3.33478 3.07764 3.33478 3.4635 3.59202 3.72074L4.29944 4.42816Z" fill="#B8BFCC"/>
<path d="M3.84922 7.8367C3.84922 7.45084 3.59197 7.1936 3.20611 7.1936H2.17714C1.79128 7.1936 1.53403 7.45084 1.53403 7.8367C1.53403 8.22257 1.79128 8.47981 2.17714 8.47981H3.20611C3.52766 8.47981 3.84922 8.22257 3.84922 7.8367Z" fill="#B8BFCC"/>
<path d="M4.29944 11.2451L3.59202 11.9526C3.33478 12.2098 3.33478 12.5957 3.59202 12.8529C3.72064 12.9815 3.91357 13.0458 4.04219 13.0458C4.17082 13.0458 4.36375 12.9815 4.49237 12.8529L5.19979 12.1455C5.45703 11.8882 5.45703 11.5024 5.19979 11.2451C4.94254 10.9879 4.55668 10.9879 4.29944 11.2451Z" fill="#B8BFCC"/>
<path d="M8.60823 12.5957C8.22237 12.5957 7.96512 12.8529 7.96512 13.2388V14.2678C7.96512 14.6536 8.22237 14.9109 8.60823 14.9109C8.99409 14.9109 9.25134 14.6536 9.25134 14.2678V13.2388C9.25134 12.9172 8.99409 12.5957 8.60823 12.5957Z" fill="#B8BFCC"/>
<path d="M12.917 11.2451C12.6598 10.9879 12.2739 10.9879 12.0167 11.2451C11.7594 11.5024 11.7594 11.8882 12.0167 12.1455L12.7241 12.8529C12.8527 12.9815 13.0456 13.0458 13.1743 13.0458C13.3029 13.0458 13.4958 12.9815 13.6244 12.8529C13.8817 12.5957 13.8817 12.2098 13.6244 11.9526L12.917 11.2451Z" fill="#B8BFCC"/>
<path d="M15.0393 7.1936H14.0103C13.6244 7.1936 13.3672 7.45084 13.3672 7.8367C13.3672 8.22257 13.6244 8.47981 14.0103 8.47981H15.0393C15.4251 8.47981 15.6824 8.22257 15.6824 7.8367C15.6824 7.45084 15.4251 7.1936 15.0393 7.1936Z" fill="#B8BFCC"/>
<path d="M12.4668 4.62109C12.6598 4.62109 12.7884 4.55678 12.917 4.42816L13.6244 3.72074C13.8817 3.4635 13.8817 3.07764 13.6244 2.82039C13.3672 2.56315 12.9813 2.56315 12.7241 2.82039L12.0167 3.52781C11.7594 3.78505 11.7594 4.17092 12.0167 4.42816C12.1453 4.55678 12.2739 4.62109 12.4668 4.62109Z" fill="#B8BFCC"/>
</g>
<defs>
<clipPath id="clip0_73_858">
<rect width="15.4346" height="15.4346" fill="white" transform="translate(0.891102 0.119293)"/>
</clipPath>
</defs>
</svg>
